<svg xmlns="http://www.w3.org/2000/svg" width="48" height="48" viewBox="0 0 48 48">
    <g fill="#09C4AC" fill-rule="evenodd">
        <path d="M11.149 27.606c.068 0 .137.021.205.03.091.01.184.012.273.037h.001l.518.15.77.22 2.551.73.953.272h.002c.256.074.482.207.675.378.145.13.271.277.368.45.076.14.125.285.162.435.07.29.074.593-.01.888-.083.29-.248.537-.456.74a1.802 1.802 0 0 1-.92.48 1.703 1.703 0 0 1-.77-.025l-.007-.002-3.834-1.098-.019-.004-.08-.023-.86-.245a1.73 1.73 0 0 1-1.08-.92 1.724 1.724 0 0 1-.113-1.231c.213-.742.9-1.262 1.67-1.262zm.053-8.617c.25-.88 1.201-1.426 2.098-1.203.018.005.037.005.055.01l.788.225.839.24 4.114 1.177-1.813 2.416-.422.563-.701-.2-.77-.22-1.194-.342-1.74-.499c-.003 0-.005 0-.008-.002l-.05-.014a1.742 1.742 0 0 1-1.196-2.15zM9.89 23.8a1.748 1.748 0 0 1 2.147-1.195h.004l1.817.52.6.174.77.22.662.19-.073.098a3.254 3.254 0 0 0-.354.55c-.014.028-.02.06-.034.088-.03.063-.05.127-.074.192-.042.104-.094.209-.124.317 0 .004 0 .01-.002.013a3.252 3.252 0 0 0 .198 2.226l-1.58-.452-.77-.22-.768-.22-.241-.07-.028-.007-.954-.273a1.744 1.744 0 0 1-1.196-2.15zm-.824 10.135c.213-.742.9-1.26 1.672-1.26.07 0 .138.02.207.027.09.013.18.015.268.038h.003l1.196.343.754.216 1.884.538.008.002.717.205.235.069c.169.048.322.127.467.221.234.153.435.355.575.607.226.406.279.876.151 1.322-.209.729-.897 1.22-1.635 1.247a1.694 1.694 0 0 1-.515-.053l-.236-.068-.724-.207-3-.858-.764-.219-.07-.019a1.75 1.75 0 0 1-1.041-.828 1.726 1.726 0 0 1-.152-1.323zM5.27 44.765l4.92-7.132 4.21 1.205.003.001.788.226-9.92 5.7zm24.71-22.076a.737.737 0 0 0 .238.212 9.312 9.312 0 0 1 2.321 1.87 9.175 9.175 0 0 1 2 8.673c-1.126 3.934-4.772 6.681-8.866 6.681-.857 0-1.715-.12-2.548-.358l-4.091-1.17-1.01-.29-.351-.1c.322-.283.594-.624.785-1.02a3.226 3.226 0 0 0-.087-2.98 3.26 3.26 0 0 0-.641-.794 3.234 3.234 0 0 0 1.283-1.664c.016-.048.038-.09.052-.14.058-.201.094-.406.113-.612.003-.036-.001-.07 0-.107.017-.27-.01-.538-.062-.8a3.276 3.276 0 0 0-.332-.949c-.023-.04-.053-.07-.075-.108a3.219 3.219 0 0 0 2.19-1.186l2.502-3.146 1.942 2.537.405.53c.024.031.058.048.085.073a.747.747 0 0 0 .972.068.742.742 0 0 0 .28-.64.722.722 0 0 0-.14-.418l-.196-.257-2.543-3.323-.195-.254a.752.752 0 0 0-.592-.295c-.25-.029-.453.102-.597.284l-3.103 3.903a1.724 1.724 0 0 1-.638.493 1.742 1.742 0 0 1-1.587-.072 1.344 1.344 0 0 1-.217-.14c-.02-.016-.034-.034-.053-.05a1.73 1.73 0 0 1-.215-2.411l.363-.484.382-.51.07-.09.452-.604 3.404-4.533.2-.268c.58-.726 1.734-.842 2.428-.291l2.167 1.81.598.5.597.5 2.015 1.684.296.246zm-.494-11.26a.755.755 0 0 0 .353 1.381l5.589.458-7.694 5.58-2.473-2.068a3.243 3.243 0 0 0-4.575.54l-.622.827-3.827-1.094 5.42-5.212a.755.755 0 0 0-.469-1.296l-4.238-.297L25.2 1.59h10.253l-2.11 1.407a.754.754 0 0 0 .836 1.255L38.17 1.59h6.298l-14.982 9.839zM47.712.619a.755.755 0 0 0-.723-.537H24.88a.754.754 0 0 0-.547.234l-9.58 10.052a.753.753 0 0 0 .493 1.272l4.144.29-4.827 4.644-.793-.227a3.231 3.231 0 0 0-.896-.126 3.259 3.259 0 0 0-3.121 2.354c-.28.98-.065 1.977.482 2.754a3.243 3.243 0 0 0-1.792 2.057 3.238 3.238 0 0 0 .925 3.263 3.246 3.246 0 0 0-1.338 1.804 3.239 3.239 0 0 0 .924 3.264 3.234 3.234 0 0 0-1.337 1.804 3.226 3.226 0 0 0 1.175 3.484l-6.652 9.643a.753.753 0 0 0 .996 1.083l14.077-8.087 5.499 1.572c.968.276 1.964.417 2.962.417 4.763 0 9.005-3.197 10.315-7.775a10.692 10.692 0 0 0-4.86-12.173l-.04-.035-2.16-1.805 9.034-6.55a.756.756 0 0 0-.381-1.362l-5.435-.446 15.257-10.02a.754.754 0 0 0 .309-.847z"/>
        <path d="M25.406 36.13a5.347 5.347 0 0 1-1.178-.197.756.756 0 0 0-.932.517.757.757 0 0 0 .518.933 6.8 6.8 0 0 0 1.513.253h.04a.754.754 0 0 0 .038-1.507M27.611 36.617a.753.753 0 0 0 1.008.35 6.739 6.739 0 0 0 3.534-4.206.754.754 0 0 0-1.45-.414 5.228 5.228 0 0 1-2.742 3.262.754.754 0 0 0-.35 1.008M30.833 4.67L29.16 5.783a.753.753 0 1 0 .837 1.255l1.672-1.115a.753.753 0 1 0-.836-1.255M7.114 16.25a.754.754 0 0 0 .454-1.358L5.96 13.686a.754.754 0 0 0-.906 1.205l1.609 1.207c.136.102.294.151.451.151M3.858 12.48a.754.754 0 0 0-.754-.754h-.01a.75.75 0 0 0-.749.754c0 .416.343.753.759.753a.754.754 0 0 0 .754-.753M10.299 13.17a.752.752 0 0 0 .7-1.033L9.131 7.47a.754.754 0 1 0-1.4.56l1.867 4.666c.118.296.4.475.7.475M1.023 18.747a.753.753 0 0 0 .549.914l4.02 1.005a.754.754 0 0 0 .365-1.463L1.938 18.2a.757.757 0 0 0-.914.548M3.765 25.715h2.01a.754.754 0 0 0 0-1.507h-2.01a.754.754 0 0 0 0 1.507M.759 25.715a.754.754 0 0 0 0-1.507h-.01a.75.75 0 0 0-.75.753c0 .417.344.754.76.754M1.754 31.747a.792.792 0 0 0 .238-.038l3.016-1.006a.755.755 0 0 0-.476-1.431l-3.016 1.005a.755.755 0 0 0 .238 1.47"/>
    </g>
</svg>
