<svg xmlns="http://www.w3.org/2000/svg" width="48" height="48" viewBox="0 0 48 48">
    <g fill="#09C4AC" fill-rule="evenodd">
        <path d="M4.982 13.972a.748.748 0 0 0 1.495 0v-.996a.748.748 0 0 0-1.495 0v.996zM8.718 11.73a.748.748 0 0 0 0-1.495h-.996a.748.748 0 0 0 0 1.495h.996zM5.73 9.737a.748.748 0 0 0 .747-.747v-.996a.748.748 0 0 0-1.495 0v.996c0 .412.335.747.747.747M3.737 11.73a.748.748 0 0 0 0-1.495H2.74a.748.748 0 0 0 0 1.495h.997zM39.855 9.806a.748.748 0 0 0 1.495 0V8.81a.748.748 0 0 0-1.495 0v.996zM43.592 7.565a.748.748 0 0 0 0-1.495h-.997a.748.748 0 0 0 0 1.495h.997zM40.603 5.572a.748.748 0 0 0 .747-.747v-.997a.748.748 0 0 0-1.495 0v.997c0 .412.335.747.748.747M38.61 7.565a.748.748 0 0 0 0-1.495h-.997a.748.748 0 0 0 0 1.495h.997zM27.899 9.806a.748.748 0 0 0 1.494 0c0-.716-.13-1.415-.388-2.078a.748.748 0 0 0-1.393.541c.19.49.287 1.007.287 1.537M23.664 5.572c.857 0 1.684.255 2.39.738a.746.746 0 0 0 .845-1.234 5.709 5.709 0 0 0-3.235-.999.748.748 0 0 0 0 1.495"/>
        <path d="M8.055 26.297l.62-.232.043.021.499.25 8.718 4.358.747.374.748.373 1.069.535.05.025 1.248.624h-.001l-.261.098-.86.322-.747.282-.386.143-3.806 1.428-6.27-3.136-.748-.373-.747-.374-5.356-2.677 5.356-2.01.084-.03zm7.398-8.626c.688.82 1.05 1.753 1.25 2.752l-8.282 4.14-.366.138-5.44-2.04 12.073-6.036a11 11 0 0 0 .765 1.046zm23.455 6.893L30.58 20.4c.177-.959.517-1.83 1.184-2.6.322-.372.606-.77.874-1.177l12.076 6.038-5.44 2.04-.366-.137zM19.43 29.77v-.285h8.469v.285l-3.488 1.744-.747.374-.747-.374-3.487-1.743v-.001zm10.96-5.018v-.983c-.001-.443.002-.87.01-1.29.004-.165.008-.33.014-.491l6.525 3.262-.498.25-7.048 3.522V25.5h.25a.748.748 0 0 0 .747-.747zm-8.719.747H27.9v2.491H19.43V25.5h2.241zm-4.752-3.015c.018.533.02 1.077.02 1.63v.638c0 .412.334.747.747.747h.249v3.523L10.888 25.5l-.499-.249 6.504-3.251c.01.161.02.322.026.485zm5.998 22.979L9.466 38.737v-5.304l5.893 2.948a.74.74 0 0 0 .597.03l3.993-1.497.726-.272.747-.28 1.495-.561V45.463zm14.946-6.726L24.41 45.463V33.8l1.495.56.747.28.728.273 3.991 1.497a.74.74 0 0 0 .597-.03l5.894-2.948v5.304zm1.494-7.722l-.747.374-.747.373-6.27 3.136-3.807-1.428-.385-.143-.748-.282-.86-.322-.26-.098h-.002l1.248-.624.05-.025 1.07-.535.747-.373.747-.374 8.719-4.359.498-.249.043-.02.62.231.084.031 5.357 2.01-5.357 2.677zM14.492 9.875c.42-4.296 3.835-7.757 8.118-8.231 5.552-.611 10.27 3.73 10.27 9.159a9.18 9.18 0 0 1-1.84 5.506c-.13.173-.262.346-.405.512-.766.884-1.185 1.867-1.426 2.894-.035.149-.077.295-.104.447-.019.102-.028.21-.043.314-.023.155-.048.31-.065.466-.012.106-.021.215-.03.322-.013.16-.025.321-.033.482-.037.672-.04 1.352-.039 2.025v.234h-2.42l.304-3.336.043-.477.03-.322.042-.478.03-.323.043-.475.072-.786.075-.827.074-.826.21-2.295a.748.748 0 0 0-.677-.813.734.734 0 0 0-.812.677l-.006.068-.267 2.946-.077.826-.028.312-.071.799-.044.476-.03.323-.042.476-.37 4.055h-2.62l-.37-4.055-.042-.476-.03-.323-.043-.476-.072-.8-.028-.311-.076-.826-.268-2.946-.006-.068a.734.734 0 0 0-.812-.677.748.748 0 0 0-.676.813l.209 2.295.075.826.074.827.072.786.044.475.029.323.043.478.03.322.042.477.304 3.336h-2.42c0-.748-.009-1.502-.059-2.25-.01-.16-.02-.32-.036-.48a8.63 8.63 0 0 0-.037-.317 10.25 10.25 0 0 0-.067-.466c-.017-.104-.028-.209-.049-.313-.028-.149-.07-.295-.106-.444-.257-1.064-.695-2.09-1.482-3.026-.108-.128-.202-.266-.301-.399a9.203 9.203 0 0 1-.66-.995 8.7 8.7 0 0 1-.336-.666 9.204 9.204 0 0 1-.808-4.774zM.002 28.2a.745.745 0 0 0 .412.708l7.557 3.778v6.513c0 .283.16.542.414.669L23.33 47.34c.011.005.023.003.034.008.097.043.198.07.3.07a.743.743 0 0 0 .3-.07c.011-.005.023-.003.034-.008l14.946-7.473a.746.746 0 0 0 .413-.669v-6.513l7.558-3.778a.745.745 0 0 0-.071-1.368l-5.441-2.04 5.44-2.041a.747.747 0 0 0 .072-1.369l-13.546-6.773a10.664 10.664 0 0 0 1.006-4.514C34.375 4.896 29.571.09 23.665.09c-.404 0-.814.024-1.22.07-4.982.55-8.952 4.575-9.44 9.568a10.658 10.658 0 0 0 .958 5.588L.413 22.09a.745.745 0 0 0 .071 1.369l5.442 2.04-5.442 2.04a.748.748 0 0 0-.483.661z"/>
    </g>
</svg>
