<svg xmlns="http://www.w3.org/2000/svg" viewBox="0 0 18 16">
    <g fill-rule="evenodd">
        <path d="M.569 16h2.277a.569.569 0 0 0 .568-.569V5.48a.569.569 0 0 0-.568-.568H.569A.569.569 0 0 0 0 5.479v9.952c0 .314.255.569.569.569M.569 3.161h2.277a.569.569 0 0 0 .568-.569V.571a.569.569 0 0 0-.568-.569H.569A.569.569 0 0 0 0 .571v2.021c0 .315.255.57.569.57M16.657 6.065c-.32-.421-.792-.767-1.416-1.039a5.125 5.125 0 0 0-2.065-.407c-1.53 0-2.825.584-3.888 1.751-.211.233-.365.182-.365-.132v-.759a.569.569 0 0 0-.569-.568H6.321a.569.569 0 0 0-.57.568v9.952c0 .314.256.569.57.569h2.276a.569.569 0 0 0 .57-.569v-3.46c0-1.443.086-2.43.26-2.965.174-.535.496-.964.966-1.288.47-.324 1-.486 1.592-.486.462 0 .857.113 1.185.34.328.227.565.545.71.954.146.409.22 1.31.22 2.703v4.202c0 .314.254.569.568.569h2.277a.569.569 0 0 0 .568-.569V9.795c0-.996-.062-1.761-.188-2.296a3.761 3.761 0 0 0-.668-1.434"/>
    </g>
</svg>
