<svg xmlns="http://www.w3.org/2000/svg" width="130" height="30" viewBox="0 0 130 30">
    <g fill="#4E51B7" fill-rule="evenodd" opacity=".5">
        <path d="M111.352 29.916c.02-1.001.079-2.005.047-3.005-.018-.61.203-.777.784-.752.953.04 1.91-.011 2.865.016 1.31.037 2.238-.56 2.858-1.66.298-.527.556-1.085.753-1.655.083-.238.028-.574-.08-.815-1.874-4.252-3.745-8.506-5.685-12.729-.206-.446-.84-.697-1.471-1.195V4.873c1.247 0 2.463-.069 3.667.022.906.069 1.285.834 1.583 1.599 1.424 3.66 2.85 7.318 4.213 10.815.448-1.378.955-2.975 1.488-4.563.68-2.026 1.373-4.048 2.073-6.067.518-1.495 1.038-1.853 2.642-1.855.796-.001 1.592.006 2.388.014.075 0 .15.036.275.068v3.61c-1.09-.185-1.38.584-1.694 1.38-1.969 4.984-3.976 9.953-5.927 14.943-1.021 2.61-2.658 4.48-5.559 4.983-.045.007-.082.062-.123.094h-5.097zM0 4.848h2.393V0h4.323v3.794c.002 1.026.003 1.027 1.056 1.029h2.982v3.47H6.716c0 .51-.002.925 0 1.34.014 2.06-.066 4.129.07 6.182.132 2.008 1.347 2.996 3.37 3.021.265.004.53 0 .863 0v3.705c-4.077 1.392-8.568-1.692-8.646-5.966-.044-2.405-.009-4.812-.01-7.218V8.339H0v-3.49zM14.616 4.879c1.653 0 3.267-.066 4.872.025.934.052 1.433.798 1.473 1.866.023.603.004 1.208.158 1.864.134-.257.261-.518.404-.77 1.146-2.029 2.782-3.282 5.218-3.315.52-.007.703.162.692.679-.026 1.208-.008 2.417-.008 3.684h-.793c-2.787-.003-4.821 1.628-5.275 4.389-.208 1.267-.194 2.575-.223 3.866-.035 1.56-.03 3.12.002 4.68.012.56-.176.736-.73.72-1.188-.034-2.377-.01-3.67-.01V21.55 9.973c0-1.36-.065-1.423-1.438-1.452-.21-.004-.418-.028-.682-.047V4.879zM85.53 17.68c-1.897 2.446-5.509 2.176-6.952-.556-1.103-2.088-1.095-4.272-.146-6.411.782-1.761 2.452-2.614 4.416-2.396 1.755.194 3.216 1.656 3.652 3.695.126.59.165 1.198.244 1.797-.028 1.419-.334 2.738-1.213 3.871m4.98-7.827c-1.982-6.33-9.868-6.799-12.892-2.682-.327-1.814-.733-2.277-2.134-2.287a977.757 977.757 0 0 0-10.192-.003c-.923.003-1.728.304-2.233 1.135-1.154 1.895-2.344 3.771-3.426 5.706-.674 1.206-.812 2.556-.111 3.802a124.447 124.447 0 0 0 3.554 5.906c.275.43.81.902 1.279.965 1.398.188 2.823.183 4.228.254v-3.812c-.303 0-.544-.028-.776.005-.994.143-1.637-.265-2.147-1.121-.716-1.203-1.527-2.35-2.33-3.5-.25-.359-.264-.618-.01-.983.892-1.28 1.757-2.579 2.617-3.88.336-.509.758-.75 1.389-.738 1.618.03 3.237.009 4.857.01 1.228 0 1.315.086 1.315 1.307v19.574h4.415v-8.57c.67.471 1.25.982 1.915 1.333 3.543 1.868 8.209.31 10.123-3.415 1.492-2.902 1.518-5.939.558-9.006M35.87 19.55c-1.618.185-2.957-.9-2.92-2.376.027-1.027.646-1.639 1.519-2.032 1.638-.735 3.386-.68 5.172-.743.299 2.51-1.495 4.89-3.77 5.15m21.237-8.058a111.769 111.769 0 0 0-3.294-5.419c-.292-.448-.848-.937-1.34-1.006-1.371-.194-2.773-.18-4.188-.248v3.811c.365 0 .632.03.89-.005.904-.125 1.486.251 1.956 1.02.745 1.218 1.574 2.385 2.385 3.56.235.34.311.6.04.985-.928 1.32-1.774 2.699-2.739 3.99-.253.34-.814.605-1.249.629-1.456.077-2.919.033-4.379.028-.952-.004-1.085-.145-1.09-1.122-.012-2.327.064-4.657-.055-6.978-.18-3.512-1.792-5.428-5.027-6.11a12.95 12.95 0 0 0-5.995.152c-2.712.708-3.622 2.23-3.07 5.067h3.919c.145-1.552.433-1.865 1.824-2.026.158-.018.317-.038.475-.051 2.334-.192 3.867 1.424 3.38 3.599-.939.054-1.89.085-2.837.17-2.021.18-3.986.57-5.767 1.616-3.496 2.054-2.94 6.754-.38 8.6 2.396 1.727 6.982 1.896 9.112-1.419.063-.097.154-.175.27-.304.194 1.868.665 2.489 2.079 2.511 3.185.051 6.37.038 9.556.04 1.036 0 1.832-.448 2.37-1.343 1.021-1.698 2.04-3.4 3.076-5.088.948-1.545.961-3.117.078-4.659M103.81 16.077c-.543 1.953-1.953 3.28-3.686 3.47-1.902.207-3.447-1.388-2.78-2.975.24-.569.827-1.165 1.398-1.386 1.114-.431 2.328-.607 3.5-.888l.041.163c.08 0 .16.005.239 0 1.623-.105 1.729.027 1.287 1.616m5.943 2.762c-1.369-.012-1.434-.077-1.436-1.436-.004-2.273.06-4.548-.034-6.817-.103-2.492-1.077-4.562-3.563-5.51-2.695-1.029-5.474-.996-8.178-.043-2.302.81-2.753 2.138-2.265 4.843h3.85c.32-1.793.443-1.91 2.111-2.08.079-.008.157-.028.236-.033 2.363-.157 3.898 1.531 3.283 3.61-.952.054-1.906.08-2.855.167-1.964.182-3.89.544-5.614 1.571-3.341 1.99-3.443 6.623-.217 8.798 2.265 1.527 6.664 1.71 8.797-1.488.071-.107.105-.238.156-.357.447 1.824.687 2.297 1.784 2.382 1.545.12 3.106.03 4.68.03V18.87c-.27-.012-.502-.03-.735-.031"/>
    </g>
</svg>
