<svg xmlns="http://www.w3.org/2000/svg" width="60" height="47" viewBox="0 0 60 47">
    <g fill="#4E51B7" fill-rule="evenodd" opacity=".5">
        <path d="M29.792 20.385c5.523 0 10-4.481 10-10.008 0-5.527-4.477-10.009-10-10.009-5.524 0-10.002 4.482-10.002 10.009s4.478 10.008 10.002 10.008"/>
        <path d="M37.169 18.475c-1.907 2.067-5.267 4.134-9.578 4.134-3.345 0-6.225-1.3-8.057-2.746C8.614 21.008.494 22.635.494 22.635v4.423l57.87-.005.006-9.123s-9.874-.062-21.201.545M12.573 45.97c-1.03.297-2.556.595-3.958.595C3.834 46.565 0 43.971 0 38.677 0 33.7 3.998 31.21 8.615 31.21c1.525 0 2.432.192 3.916.47v3.912c-.907-.299-1.834-.554-2.761-.554-2.35 0-4.123 1.298-4.123 3.722 0 2.551 1.648 3.848 3.937 3.848 1.01 0 1.979-.212 2.989-.574v3.935zM25.64 35.528a12.666 12.666 0 0 0-4.268-.744c-.865 0-2.37.022-2.37.978 0 1.936 7.565.107 7.565 5.827 0 3.976-3.814 4.976-7.008 4.976-2.123 0-3.875-.213-5.936-.702v-3.848c1.484.637 3.298.977 4.947.977 1.298 0 2.473-.276 2.473-1.02 0-1.999-7.564-.192-7.564-5.955 0-4.082 4.122-4.806 7.399-4.806 1.546 0 3.256.192 4.761.512v3.805zM35.387 42.992c2.184 0 2.247-2.51 2.266-4.104-.02-1.382-.164-4.104-2.266-4.104-2.04 0-2.205 2.722-2.205 4.104 0 1.594.226 4.104 2.205 4.104m0 3.573c-5.03 0-7.976-2.616-7.976-7.677 0-4.975 2.947-7.677 7.976-7.677s8.038 2.702 8.038 7.677c0 5.061-3.01 7.677-8.038 7.677M49.981 37.144h1.38c.97 0 2.02-.297 2.02-1.424 0-1.106-.906-1.445-1.897-1.445h-1.503v2.87zm0 6.104h1.443c1.01 0 2.102-.383 2.102-1.532 0-1.276-1.03-1.51-2.061-1.51H49.98v3.042zm-5.194-11.78h9.047c2.495 0 4.947.829 4.947 3.657 0 2.042-1.05 3.125-2.968 3.637v.042c2 .276 3.236 1.892 3.236 3.38 0 3.744-2.927 4.125-5.915 4.125h-8.347V31.467z"/>
        <path d="M2.863 30.134s1.736 1.491 4.36 1.502a7.244 7.244 0 0 0 5.28-2.26l-.42-.32s-1.258 1.388-3.647 1.364c-2.534-.026-3.976-1.753-3.976-1.753l-1.597 1.467z"/>
    </g>
</svg>
