<svg xmlns="http://www.w3.org/2000/svg" width="143" height="39" viewBox="0 0 143 39">
    <g fill="none" fill-rule="evenodd" opacity=".5">
        <path fill="#4E51B7" d="M.274 37.402h35.494V1.906H.274z"/>
        <path fill="#22196F" d="M2.157 30.23l4.63 4.72 10.849-11.006 11.211 11.233 4.697-4.652-11.098-11.097 2.134-2.065v-4.404l1.339-1.134v3.45l1.725 1.407 5.151-5.153 1.657 1.272c.976-3.608-4.675-11.802-9.35-7.262l-5.447 5.4 1.112 1.34-2.77 2.7-2.677-2.632 1.407-1.271L10.76 5.31c-4.494-3.7-9.1 1.93-9.26 7.421l1.635-1.36 5.015 5.4 1.792-1.497V11.96l1.113.84v4.334l2.178 2.178L2.157 30.23z"/>
        <path fill="#4E51B7" d="M91.96 23.126l-2.882 15.32h4.335l1.158-5.72 3.88 5.72h5.697l-5.56-8.034 7.103-7.308h-5.515l-4.857 5.401.772-5.4-4.13.021zM71.74 38.492h4.108l1.043-9.555 5.878 9.509h4.403l1.839-15.274h-4.108l-1.158 9.555-5.878-9.6h-4.243L71.74 38.491zm-9.85-5.924h2.768l-.884-4.018-1.884 4.018zm-7.24 5.878H59.1l1.339-2.679h5.038l.75 2.725h4.107l-3.563-15.23h-4.2l-7.92 15.184zm-6.036-11.643l-.432 2.043.522.022c1.566.09 2.474-2.065.59-2.065h-.68zm-.863 5.47l-.522 2.519h1.702c1.93.09 1.702-2.52.59-2.52h-1.77zm-2.973-9.1l-2.587 15.25h7.33c4.971 0 7.013-6.172 3.473-8.283 3.018-2.792 1.475-6.99-1.77-7.036l-6.446.068zm86.717-16.568v10.28h3.881V10.6c.113-1.566 3.2-1.839 3.223 0v6.285h3.926v-6.444c-.09-3.61-3.88-5.357-7.308-3.065v-.771h-3.722zm-14.206.204l-1.226 2.497c-1.543-.477-3.042-.386-2.996.045.046.272-.204.749 2.201 1.09 3.586.566 3.291 7.239-2.723 6.74-1.657-.114-2.996-.545-4.107-1.203l1.339-2.678c1.883.93 3.699 1.475 3.835.545.159-1.158-1.975-.75-3.268-1.725-2.315-1.43-1-5.855 2.791-5.901 1.34-.09 2.724.136 4.154.59zm5.514 3.154c.045-1.247 2.769-1.247 2.95 0h-2.95zm1.339 7.218c3.586-.023 4.903-1.498 5.673-3.654h-3.63c-1.634 2.088-4.018.567-3.903-1.135h7.625c0-4.176-2.202-6.15-5.765-6.15-3.54 0-5.764 2.496-5.764 5.537s2.587 5.425 5.764 5.402zM94.526 9.963c.045-1.247 2.768-1.247 2.95 0h-2.95zm1.338 7.218c3.564-.023 4.88-1.498 5.652-3.654h-3.609c-1.634 2.088-4.017.567-3.903-1.135h7.625c0-4.176-2.224-6.15-5.765-6.15-3.54 0-5.764 2.496-5.764 5.537s2.587 5.425 5.764 5.402zM73.987 6.605v3.268h1.43v7.012h4.017V9.873H83.2v7.012h4.153V9.827h2.587V6.65h-2.7V4.358c-.069-.84 1.906-1.18 2.587-.5V.5c-3.813-1.203-6.9.953-6.877 4.29v1.815h-3.54V4.358c-.046-.84 1.68-1.18 2.678-.5V.5c-3.314-.975-6.855.635-6.831 4.266v1.816l-1.271.023zM104.738.727c1.226 0 2.201.999 2.201 2.201a2.204 2.204 0 0 1-2.201 2.202c-1.203 0-2.178-.999-2.178-2.202 0-1.202.975-2.201 2.178-2.201zm-2.065 16.158h4.153V6.605h-4.153v10.28zM71.15.727c1.203 0 2.178.999 2.178 2.201 0 1.203-.975 2.202-2.178 2.202-1.226 0-2.201-.999-2.201-2.202 0-1.202.975-2.201 2.2-2.201zm-2.088 16.158h4.153V6.605h-4.153v10.28zM60.12 6.22c1.09 0 2.11.363 2.95.953v-.567h3.904l.023 10.28h-3.95l.023-.635c-.84.59-1.86.93-2.95.93-2.905 0-5.288-2.45-5.288-5.469 0-3.018 2.383-5.492 5.288-5.492zm.84 3.268c1.316 0 2.383.998 2.383 2.224 0 1.225-1.067 2.224-2.383 2.224-1.294 0-2.36-.999-2.36-2.224 0-1.226 1.066-2.224 2.36-2.224zM42.486 2.09v14.796h3.994v-4.81l3.405 4.81h4.72l-4.198-5.922c4.857-2.36 3.041-8.807-2.065-8.874h-5.856zm3.994 3.245v3.268h1.407c1.93-.363 1.407-3.132 0-3.268H46.48z"/>
    </g>
</svg>
