<svg xmlns="http://www.w3.org/2000/svg" width="131" height="20" viewBox="0 0 131 20">
    <g fill="#FFF" fill-rule="evenodd">
        <path d="M7.23.458L0 19.515h6l.63-1.714h5.77l.628 1.714h6L11.801.458H7.229zm2.285 9.799l1.285 3.344H8.228l1.287-3.344zM33.152 6.943c-.343-.304-.772-.537-1.286-.7A5.056 5.056 0 0 0 30.352 6c-.554 0-1.058.1-1.515.3-.457.2-.853.476-1.185.829a3.822 3.822 0 0 0-.786 1.271 4.419 4.419 0 0 0-.286 1.6c0 .572.105 1.105.314 1.6a3.824 3.824 0 0 0 2.129 2.1c.486.2 1.005.3 1.557.3.647 0 1.238-.138 1.772-.414a4.23 4.23 0 0 0 1.371-1.129h-1.714v-4h7.343V14.8c-.439.781-.962 1.49-1.572 2.129-.61.638-1.29 1.185-2.043 1.643A9.942 9.942 0 0 1 30.58 20a9.894 9.894 0 0 1-3.886-.772 9.99 9.99 0 0 1-3.185-2.114 9.919 9.919 0 0 1-2.143-3.172c-.525-1.219-.786-2.533-.786-3.943 0-1.371.248-2.666.743-3.885a9.981 9.981 0 0 1 2.043-3.186A9.547 9.547 0 0 1 26.452.786C27.642.262 28.923 0 30.294 0c1.067 0 1.99.105 2.772.315.78.21 1.438.447 1.97.714.63.305 1.153.638 1.573 1l-3.457 4.914zM43.643 19.515H50.1V.458h-6.457zM54.968.458h6.343v14.057h5.258v5H54.968zM69.965.458h11.229v5h-5.142v2.114h5.056v4.742h-5.056v2.201h5.342v5H69.965zM87.378 14.086c1.428 0 2.532-.337 3.313-1.014.782-.676 1.172-1.71 1.172-3.1 0-1.39-.39-2.418-1.172-3.086-.78-.667-1.885-1-3.313-1v8.2zM117.105.458l3.23 8.285 3.257-8.285h6.657l-7.43 19.057h-4.941L110.449.458zM102.371 14.515v-2.201h5.057V7.572h-5.057V5.458h5.142v-5H93.266v.6s5.549 2.211 5.549 8.913c0 7.218-5.549 8.929-5.549 8.929v.615h14.447v-5h-5.342z"/>
    </g>
</svg>
