<svg xmlns="http://www.w3.org/2000/svg" width="48" height="48" viewBox="0 0 48 48">
    <g fill="#09C4AC" fill-rule="evenodd">
        <path d="M3.5 26.958c3.065 3.97 7.857 6.542 13.25 6.542 3.62 0 6.967-1.166 9.709-3.127l4.242 4.244a1.765 1.765 0 0 0-.105.584c0 .476.184.922.52 1.257l1.824 1.824L39 44.343V46H3.5V26.958zm37 14.814l-.75.75-.225.225-.525-.526-1.441-1.442L39 39.338l.75-.749.75-.75.28-.28 1.967 1.966-2.247 2.247zm-2.748-7.241L39 35.779l.72.719-.72.72-2.502 2.501-1.967-1.967 3.221-3.221zm-5.575.474l2.829-2.829a.272.272 0 0 1 .195-.081c.043 0 .126.01.197.082l1.293 1.294-3.22 3.22-1.295-1.295a.268.268 0 0 1-.08-.195c0-.043.009-.126.081-.196zm-2.734-7.357l3.985 3.985-1.795 1.795-3.984-3.986a16.696 16.696 0 0 0 1.794-1.794zm16.475 15.047c.109.11.109.287.001.396l-2.827 2.827c-.145.144-.255.14-.395.001l-2.111-2.111 3.222-3.222 2.11 2.109zM39 1.5v32.158l-.718-.718-1.822-1.823c-.478-.479-1.209-.611-1.834-.407l-4.252-4.251c.223-.312.431-.633.632-.959h4.744a.75.75 0 0 0 0-1.5h-3.924a16.616 16.616 0 0 0 1.236-3.5h2.688a.75.75 0 0 0 0-1.5h-2.419c.1-.738.169-1.485.169-2.25 0-.422-.032-.836-.063-1.25h2.313a.75.75 0 0 0 0-1.5h-2.496a16.5 16.5 0 0 0-.976-3.5h3.472a.75.75 0 0 0 0-1.5h-4.165a16.82 16.82 0 0 0-2.461-3.5h6.626a.75.75 0 0 0 0-1.5h-8c-.048 0-.089.019-.134.027A16.76 16.76 0 0 0 23.641 1.5H39zm-35.5 0h6.359A16.826 16.826 0 0 0 3.5 6.542V1.5zM2 12.944c.198-.765.44-1.512.75-2.227.222-.513.476-1.006.75-1.488C6.127 4.62 11.076 1.5 16.75 1.5c5.578 0 10.451 3.02 13.11 7.5a15.016 15.016 0 0 1 1.878 5c.091.492.158.992.199 1.5.034.413.063.828.063 1.25 0 .767-.075 1.514-.185 2.25a15.425 15.425 0 0 1-.3 1.5 15.196 15.196 0 0 1-1.352 3.5 15.6 15.6 0 0 1-.86 1.39c-.026.038-.056.073-.082.11-.119.169-.245.332-.371.495a15.43 15.43 0 0 1-2.854 2.855c-.2.153-.398.309-.605.453A15.163 15.163 0 0 1 16.75 32c-5.674 0-10.623-3.12-13.25-7.729a15.338 15.338 0 0 1-.75-1.488A15.098 15.098 0 0 1 2 20.556c-.314-1.22-.5-2.49-.5-3.806 0-1.316.186-2.586.5-3.806zM40.5 46.75v-.907l1.138 1.137c.335.335.781.519 1.257.519.474 0 .92-.184 1.256-.52l2.829-2.829a1.782 1.782 0 0 0 0-2.514l-5.668-5.667-.001-.001-.001-.001-.81-.809V.75a.75.75 0 0 0-.75-.75h-37A.75.75 0 0 0 2 .75v8.073a16.65 16.65 0 0 0-2 7.927c0 2.866.726 5.565 2 7.927V46.75c0 .414.336.75.75.75h37a.75.75 0 0 0 .75-.75z"/>
        <path d="M17.75 41h-12a.75.75 0 0 0 0 1.5h12a.75.75 0 0 0 0-1.5M31.75 41h-6a.75.75 0 0 0 0 1.5h6a.75.75 0 0 0 0-1.5M22.75 41h-2a.75.75 0 0 0 0 1.5h2a.75.75 0 0 0 0-1.5M13.75 37.5h2a.75.75 0 0 0 0-1.5h-2a.75.75 0 0 0 0 1.5M23.75 36h-5a.75.75 0 0 0 0 1.5h5a.75.75 0 0 0 0-1.5M5.75 37.5h5a.75.75 0 0 0 0-1.5h-5a.75.75 0 0 0 0 1.5M26.75 37.5h1a.75.75 0 0 0 0-1.5h-1a.75.75 0 0 0 0 1.5M16.75 5.5c5.26 0 9.676 3.634 10.901 8.52A11.103 11.103 0 0 1 28 16.75c0 .771-.078 1.522-.227 2.25a11.17 11.17 0 0 1-.389 1.391C25.865 24.811 21.678 28 16.75 28 10.547 28 5.5 22.953 5.5 16.75S10.547 5.5 16.75 5.5m0 24c5.726 0 10.58-3.795 12.186-9 .15-.487.261-.99.353-1.5a12.73 12.73 0 0 0 .211-2.25 12.573 12.573 0 0 0-.307-2.75 12.664 12.664 0 0 0-2.07-4.637C24.809 6.123 21.026 4 16.75 4 9.72 4 4 9.72 4 16.75S9.72 29.5 16.75 29.5"/>
        <path d="M12.75 15.982l1.97 1.97a.749.749 0 0 0 1.06 0l4.97-4.97 1.768 1.768-7.268 7.267-4.268-4.267 1.768-1.768zm1.97 7.626a.747.747 0 0 0 1.06 0l8.328-8.328a.749.749 0 0 0 0-1.06L21.28 11.39a.749.749 0 0 0-1.06 0l-4.97 4.97-1.97-1.97a.749.749 0 0 0-1.06 0L9.392 17.22a.75.75 0 0 0 0 1.061l5.328 5.328z"/>
    </g>
</svg>
