<svg xmlns="http://www.w3.org/2000/svg" viewBox="0 0 16 16">
    <path fill-rule="evenodd" d="M14.932 10.577l-1.37-1.37a1.925 1.925 0 0 0-2.66 0l-.77.771a.693.693 0 0 1-.894.077 18.343 18.343 0 0 1-2.05-1.778 18.396 18.396 0 0 1-1.779-2.05.693.693 0 0 1 .077-.895l.777-.776a1.878 1.878 0 0 0 .004-2.657l-.004-.004L4.906.55a1.885 1.885 0 0 0-2.661 0L.55 2.245a1.895 1.895 0 0 0-.415 2.038c.996 2.5 2.49 4.772 4.391 6.679a19.906 19.906 0 0 0 6.685 4.39 1.88 1.88 0 0 0 2.039-.415l1.694-1.694a1.885 1.885 0 0 0 0-2.66l-.012-.006z"/>
</svg>
