<svg xmlns="http://www.w3.org/2000/svg" width="41" height="48" viewBox="0 0 41 48">
    <g fill="#09C4AC" fill-rule="evenodd">
        <path d="M31.469 34.477a.751.751 0 0 0-.32.617l.033 11.07H13.859V42.65h.94a.752.752 0 1 0 0-1.505h-2.007c-.058 0-.109.02-.16.033l-4.903.355a.753.753 0 0 0-.114.018c-.76.179-1.509-.425-1.509-1.2v-3.044a.761.761 0 0 0-.038-.238l-.816-2.447h1.519a.752.752 0 1 0 0-1.505H5.237l.846-3.382a.75.75 0 0 0-.73-.934H2.793c-.492 0-.835-.45-.958-.642-.338-.522-.428-1.172-.242-1.584l3.357-6.501a.732.732 0 0 0 .084-.377c-.01-.228-.034-1.542-.034-1.774 0-10.007 7.217-16.876 17.306-16.393 8.693.43 15.815 7.285 16.564 15.942.567 6.55-2.476 13.544-7.4 17.004m8.9-17.134C39.554 7.94 31.82.496 22.378.028 11.509-.526 3.493 7.174 3.493 17.924c0 .2.018 1.175.03 1.634L.237 25.92c-.411.906-.282 2.105.33 3.056.545.846 1.356 1.331 2.224 1.331h1.597l-.873 3.495a.75.75 0 0 0 .016.42l1.07 3.208v2.922a2.738 2.738 0 0 0 3.29 2.68l4.462-.324v4.208c0 .416.337.752.753.752h18.83a.753.753 0 0 0 .752-.753l-.033-11.439c5.152-3.826 8.312-11.217 7.712-18.133"/>
        <path d="M12.12 23.01c.001.022 0 .042.003.063H9.781a.25.25 0 0 1-.25-.25v-2.008c0-.138.112-.25.25-.25h2.342c-.003.021-.002.041-.004.062-.048.393-.08.788-.08 1.192 0 .404.032.8.08 1.192zm15.67-8.932l1.661-1.662c.125-.124.226-.129.355 0l1.419 1.42a.248.248 0 0 1 .073.177c0 .04-.01.114-.073.178l-1.66 1.66c-.013-.016-.03-.03-.042-.048a9.794 9.794 0 0 0-1.685-1.683c-.016-.014-.03-.03-.047-.042zm-7.221-1.96V9.778c0-.138.112-.251.25-.251h2.007c.139 0 .251.113.251.25v2.343c-.022-.002-.042 0-.063-.003a9.73 9.73 0 0 0-1.191-.082c-.403 0-.8.034-1.192.082-.02.003-.041 0-.062.003zm-6.488 3.733l-1.66-1.66a.248.248 0 0 1-.073-.178c0-.039.01-.113.073-.177l1.42-1.42a.25.25 0 0 1 .354 0l1.66 1.662c-.017.012-.032.028-.047.042a9.794 9.794 0 0 0-1.685 1.683c-.014.018-.029.032-.042.048zm15.809 7.8a8.232 8.232 0 0 1-1.084 2.596 8.334 8.334 0 0 1-5.15 3.64 8.359 8.359 0 0 1-1.833.21c-.63 0-1.241-.077-1.832-.21a8.323 8.323 0 0 1-5.15-3.64 8.232 8.232 0 0 1-1.085-2.595 8.246 8.246 0 0 1-.212-1.833c0-.63.077-1.242.212-1.833a8.232 8.232 0 0 1 1.084-2.595 8.323 8.323 0 0 1 5.15-3.64 8.359 8.359 0 0 1 1.833-.211c.63 0 1.241.078 1.832.21a8.334 8.334 0 0 1 5.15 3.64c.501.788.873 1.662 1.085 2.596.134.591.212 1.203.212 1.833 0 .63-.078 1.242-.212 1.833zm-14.035 5.91l-1.662 1.661c-.123.125-.223.128-.353 0l-1.419-1.42a.248.248 0 0 1-.073-.177c0-.04.01-.114.073-.178l1.66-1.66c.013.016.028.03.042.048a9.794 9.794 0 0 0 1.685 1.683c.015.014.03.03.047.042zm7.222 1.958v2.342c0 .138-.112.251-.25.251h-2.008a.252.252 0 0 1-.25-.25v-2.343c.02.002.04 0 .062.003a9.76 9.76 0 0 0 1.192.081c.403 0 .8-.033 1.191-.08.022-.004.041-.002.063-.004zm6.488-3.732l1.66 1.66a.248.248 0 0 1 .073.178c0 .039-.01.113-.073.177l-1.42 1.42c-.128.128-.228.126-.355 0l-1.66-1.662c.018-.012.032-.028.048-.042a9.794 9.794 0 0 0 1.685-1.683c.013-.018.029-.032.042-.048zm4.55-4.964a.25.25 0 0 1-.25.25h-2.342c.003-.021.002-.041.004-.062.048-.393.08-.788.08-1.192 0-.404-.032-.8-.08-1.192-.002-.02-.001-.04-.004-.063h2.342c.138 0 .25.113.25.251v2.008zm-.25-3.764h-2.66a9.789 9.789 0 0 0-.795-1.924l1.88-1.88a1.758 1.758 0 0 0 0-2.483l-1.42-1.419c-.664-.665-1.824-.661-2.483 0l-1.88 1.88a9.762 9.762 0 0 0-1.924-.795V9.777c0-.968-.788-1.756-1.757-1.756H20.82c-.968 0-1.756.788-1.756 1.756v2.66a9.737 9.737 0 0 0-1.924.796l-1.879-1.879c-.66-.663-1.821-.666-2.484 0l-1.42 1.418a1.758 1.758 0 0 0 0 2.483l1.88 1.88a9.789 9.789 0 0 0-.795 1.924h-2.66c-.968 0-1.756.789-1.756 1.756v2.008c0 .967.788 1.755 1.756 1.755h2.66c.2.674.464 1.32.795 1.925l-1.88 1.88a1.758 1.758 0 0 0 0 2.483l1.42 1.419c.33.332.773.515 1.242.515.47 0 .911-.184 1.241-.515l1.88-1.88c.605.331 1.25.596 1.924.795v2.661c0 .968.788 1.756 1.756 1.756h2.007c.969 0 1.757-.788 1.757-1.756V31.2a9.762 9.762 0 0 0 1.924-.795l1.879 1.879c.33.332.771.516 1.242.516.469 0 .91-.183 1.242-.515l1.42-1.42a1.758 1.758 0 0 0 0-2.482l-1.88-1.88c.33-.604.595-1.25.795-1.925h2.66c.968 0 1.756-.788 1.756-1.755v-2.008c0-.967-.788-1.756-1.756-1.756z"/>
        <path d="M21.823 26.084a4.269 4.269 0 0 1-4.265-4.265 4.269 4.269 0 0 1 4.265-4.265 4.269 4.269 0 0 1 4.265 4.265 4.269 4.269 0 0 1-4.265 4.265m0-10.035a5.776 5.776 0 0 0-5.77 5.77 5.776 5.776 0 0 0 5.77 5.77 5.776 5.776 0 0 0 5.77-5.77 5.776 5.776 0 0 0-5.77-5.77"/>
    </g>
</svg>
