<svg xmlns="http://www.w3.org/2000/svg" width="155" height="26" viewBox="0 0 155 26">
    <g fill="#4E51B7" fill-rule="evenodd" opacity=".5">
        <path d="M35.233 22.972h-6.897c.869-.779 1.099-3.81 1.482-9.149l.076-1.243c.205-3.033.358-5.365.333-6.996-.026-1.4-.179-2.308-.563-2.619h7.715c1.84 0 5.519.104 5.519 3.99 0 2.592-2.377 4.2-4.548 4.77 3.066.312 5.365 1.814 5.365 5.027 0 3.473-3.219 6.22-8.482 6.22m-.306-9.666h-1.404l-.205 2.954a59.334 59.334 0 0 0-.179 3.68c0 .182.561.57 1.89.57 2.759 0 4.573-1.399 4.573-3.706 0-2.566-2.07-3.498-4.675-3.498m.638-7.93c-.384 0-.894 0-1.38.052a54.264 54.264 0 0 0-.433 4.224s-.077 1.269-.077 1.217h.51c2.504 0 4.805-.88 4.805-3.211 0-1.35-1.1-2.282-3.425-2.282m24.32 17.777c-1.684 0-1.812-.05-3.166-4.768l-.485-1.736c-.82.388-2.275.57-4.6.57h-2.35l-.408.88c-.41.935-1.406 2.853-1.38 3.967 0 .259.025.518.128.907h-4.726c1.353-1.374 3.066-4.56 5.441-9.718l1.38-2.98C50.97 7.58 52.3 4.522 52.3 4.08c0-.39-.1-.752-.255-1.115h4.293s1.122 4.329 2.12 7.93l.842 3.162c1.456 5.314 2.376 7.904 3.602 8.915-1.098.13-2.478.18-3.016.18M53.68 7.658l-3.195 6.969h5.186l-1.99-6.97m24.88 16.171c-1.456 0-1.814-.235-2.299-.909l-5.518-7.774c-.435-.596-.767-1.088-1.456-1.088h-.128l-.101 1.502c-.129 2.048-.205 3.683-.205 4.9.025 1.347.18 2.175.537 2.513h-5.34c.766-.7 1.046-3.033 1.481-9.149l.077-1.27c.205-3.005.359-5.338.332-6.97-.026-1.425-.178-2.307-.562-2.618h7.28c2.376 0 5.646.416 5.646 4.329 0 3.212-2.121 4.975-4.75 5.803.255.235.713.83.995 1.194l4.01 5.39c2.505 3.344 2.709 3.499 3.603 3.965-1.124.13-2.63.182-3.602.182M71.434 5.402c-.486 0-1.075 0-1.533.051-.153.855-.282 2.333-.46 4.716l-.104 1.4c.257.053.588.08.896.08 2.451 0 4.139-1.505 4.139-3.784 0-1.557-1.074-2.463-2.938-2.463M89.06 23.361c-5.084 0-8.023-4.25-8.023-9.018 0-6.634 3.55-11.767 10.32-11.767 2.121 0 3.118.389 4.829.389l-.51 5.106c-.971-1.789-2.556-3.007-4.675-3.007-4.215 0-5.927 4.614-5.927 8.579 0 4.302 2.376 6.66 5.543 6.66 1.712 0 3.218-.468 5.749-2.255-1.022 3.318-3.398 5.313-7.306 5.313m34.768-.208c-1.687 0-1.814-.05-3.169-4.768l-.484-1.736c-.817.388-2.274.57-4.599.57h-2.35l-.41.88c-.587 1.324-1.378 2.876-1.378 3.967 0 .259.025.543.128.907h-13.95c.794-.907 1.049-3.835 1.432-9.15l.076-1.268c.205-3.033.36-5.365.333-6.997-.026-1.347-.154-2.203-.511-2.591h5.392c-.768.596-1.05 3.809-1.406 9.123l-.103 1.268c-.129 1.97-.383 3.992-.383 5.962 0 .905.357 1.112 1.279 1.112 3.267 0 4.086-.077 5.567-1.087.92-1.711 1.968-3.863 2.989-6.091l1.38-2.98c1.303-2.799 2.58-5.651 2.58-6.194 0-.39-.102-.752-.254-1.115h4.291s1.737 6.532 2.12 7.93l.842 3.162c1.456 5.314 2.377 7.904 3.603 8.915-1.023.13-2.48.181-3.015.181M117.62 7.658l-3.166 6.969h5.159l-1.993-6.97m18.573 4.534c-.461.778-1.047 1.839-1.406 2.618-.306 1.476-.46 3.447-.46 5.623 0 .908.154 2.125.563 2.54h-5.339c.944-.907 1.329-6.478 1.278-8.24-.716-2.514-1.688-4.924-3.17-7.853-.942-1.84-2.042-3.578-2.732-3.914 1.2-.103 2.733-.18 3.475-.18 1.327 0 1.686.18 2.504 1.995 1.275 2.929 2.221 5.13 2.783 6.764 1.355-2.152 2.3-3.628 3.527-5.65.306-.492.561-1.114.561-1.71 0-.468-.077-.986-.28-1.219h5.288c-1.022.233-5.621 7.568-6.592 9.226m17.858-4.483c-.82-1.504-2.583-2.645-4.498-2.645-1.685 0-3.167.7-3.167 2.515 0 1.528 1.865 2.565 3.807 3.836 2.12 1.347 4.318 3.005 4.318 5.883 0 3.758-3.602 6.064-7.767 6.064-1.711 0-3.5-.336-5.517-1.114l.33-5.002c.972 1.997 2.787 3.576 5.467 3.576 2.07 0 3.602-1.01 3.602-2.773 0-1.503-1.253-2.435-2.783-3.368-3.22-1.97-5.263-3.552-5.263-6.402 0-4.277 3.525-5.702 7.178-5.702 2.12 0 3.45.389 4.802.389l-.51 4.743M11.04.001c-.678 0-.817.12-1.037.366a4.496 4.496 0 0 0-.27-.007c-.522 0-1.19.077-1.76.462-.551.367-.813 1.017-.52 1.492 0 0 .197-.292.845-.292.091 0 .192.01.3.019.894.107 1.556.582 1.476 1.837-.072 1.254-.538 2.652-2.445 2.669 0 0-.245 0-.507-.025-.888-.097-1.167-.66-1.167-.66s.767-.21.774-1.192c-.007-.669-.583-1.28-1.415-1.527a3.15 3.15 0 0 0-.884-.12c-.981 0-2.083.415-2.825 1.393C-.08 6.66-.215 9.93.195 12.97c.413 3.048 2.329 5.87 2.385 5.947.04.054.077.084.119.084.021 0 .043-.01.066-.029.827-.81 1.616-1.917 1.954-2.657.361.29.172.908-.027 1.568-.188.675-.647 1.57-.813 1.86-.16.282-.375.61-.086.781.03.019.067.028.112.028.37 0 1.243-.652 2.217-1.962 1.09-1.474 1.643-2.782 1.643-2.782.08.018.213.154.191.525-.015.377-.398 1.779-1.146 3.084-.756 1.303-1.454 2.12-1.594 2.305-.087.108-.013.175.043.218.055.038 1.392 1.297 3.333 2.36 2.3 1.238 3.32 1.46 3.32 1.46s1.019-.217 3.32-1.453c1.94-1.065 3.282-2.33 3.332-2.373.056-.038.128-.1.043-.217-.133-.177-.833-.997-1.587-2.302-.745-1.295-1.144-2.706-1.15-3.078-.015-.375.11-.5.187-.53 0 0 .559 1.316 1.649 2.782.978 1.312 1.843 1.963 2.215 1.963a.23.23 0 0 0 .116-.028c.28-.172.071-.505-.093-.784-.153-.287-.618-1.177-.816-1.858-.19-.667-.386-1.284-.018-1.568.338.74 1.121 1.853 1.951 2.652a.101.101 0 0 0 .072.034c.036 0 .075-.029.11-.078.06-.082 1.98-2.9 2.39-5.953.411-3.047.275-6.31-1.41-8.553-.738-.981-1.848-1.398-2.835-1.398-.309 0-.603.04-.872.118-.839.254-1.413.872-1.408 1.533 0 .983.77 1.192.77 1.192s-.257.55-1.176.66a4.047 4.047 0 0 1-.498.032c-.691 0-1.274-.222-1.81-.987-.521-.736-.504-2.252-.534-2.758-.024-.513-.133-1.663-.668-2.133C12.66.194 12.011.032 11.202 0l-.163.001"/>
    </g>
</svg>
