<svg xmlns="http://www.w3.org/2000/svg" width="121" height="30" viewBox="0 0 121 30">
    <g fill="#4E51B7" fill-rule="evenodd" opacity=".5">
        <path d="M120.986 10.566a3.468 3.468 0 1 1-3.468-3.468c1.916.02 3.468 1.573 3.468 3.468M120.986 21.415a3.468 3.468 0 1 1-6.936 0 3.468 3.468 0 0 1 6.936 0M110.581 17.059v-1.33c0-4.981-3.488-8.631-8.206-8.631-4.719 0-8.389 3.77-8.389 8.993 0 5.364 3.468 8.792 8.993 8.792 1.533 0 4.598-.283 6.937-1.896l-1.492-3.307c-1.593.908-3.206 1.311-4.658 1.311-.12 0-.242 0-.363-.02h-.08c-.122 0-.223-.02-.344-.04-.02 0-.04 0-.08-.02-.101-.02-.182-.02-.262-.04-.04 0-.06-.02-.1-.02a1 1 0 0 1-.263-.082c-.04-.02-.101-.02-.141-.04l-.182-.06c-.06-.02-.141-.06-.202-.081-.02 0-.04-.02-.06-.02-.1-.06-.222-.101-.303-.162a3.455 3.455 0 0 1-.604-.463 1.058 1.058 0 0 1-.202-.222l-.08-.08a.619.619 0 0 1-.102-.142c-.06-.08-.12-.161-.18-.262-.344-.565-.566-1.27-.646-2.158h11.01v-.02zm-8.206-6.21c1.472 0 2.62 1.169 2.823 3.427H99.53c.222-2.278 1.392-3.428 2.844-3.428zM56.057 12.3c0-.806.807-1.29 2.137-1.29 1.392 0 2.864.504 3.932.968l1.493-3.489c-1.392-.706-3.53-1.371-5.687-1.371-3.952 0-7.158 1.795-7.158 5.384 0 5.666 7.985 4.618 7.985 7.118 0 .928-.928 1.391-2.5 1.391-1.593 0-3.126-.524-4.336-1.129L50.23 23.31c1.997 1.069 4.336 1.573 6.493 1.573 3.852 0 7.2-1.997 7.2-5.666-.021-5.586-7.865-4.658-7.865-6.917zM25.266 7.118c-3.287 0-5.888 1.028-7.481 2.037l1.472 3.024c.968-.423 3.004-1.19 4.718-1.19 1.23 0 2.34.424 2.34 1.735v1.13c-7.36-.546-9.458 2.68-9.458 5.665 0 2.924 2.46 5.364 5.707 5.364 1.29 0 2.682-.484 3.73-1.15v.747h5.324V12.663c.02-3.831-2.42-5.545-6.352-5.545zm1.23 13.631a3.705 3.705 0 0 1-2.097.666c-1.331 0-2.238-.767-2.238-1.997 0-1.39 1.109-2.762 4.335-2.238v3.57zM73.903 7.118c-3.287 0-5.889 1.028-7.482 2.037l1.472 3.024c.969-.423 3.005-1.19 4.719-1.19 1.23 0 2.339.424 2.339 1.735v1.13c-7.34-.525-9.457 2.7-9.457 5.685 0 2.924 2.46 5.364 5.706 5.364 1.291 0 2.682-.484 3.73-1.15v.747h5.325V12.683c.02-3.851-2.42-5.565-6.352-5.565zm1.028 13.631a3.705 3.705 0 0 1-2.097.666c-1.331 0-2.239-.767-2.239-1.997 0-1.39 1.11-2.762 4.336-2.238v3.57zM84.61 6.815v.706h-2.823v3.63h2.823V24.5h5.283V11.15h3.67V7.522h-3.67v-.907c0-1.492.605-2.561 2.238-2.561.504 0 1.13.1 1.573.242V.504a9.403 9.403 0 0 0-2.52-.343c-4.296 0-6.574 2.622-6.574 6.654zm-39.341.686l-3.67 10.143L37.385 7.5H31.94l7.179 16.172-2.238 5.565h5.06l8.611-21.737H45.27zM8.812 1.512H0V24.48h5.465V16.09h3.367c4.436 0 7.763-2.762 7.763-7.46-.02-4.054-2.52-7.119-7.783-7.119zM8.207 12.1H5.444V5.505h2.763c1.956 0 3.065 1.371 3.065 3.327 0 2.117-1.23 3.267-3.065 3.267z"/>
    </g>
</svg>
