<svg xmlns="http://www.w3.org/2000/svg" width="67" height="33" viewBox="0 0 67 33">
    <g fill="#4E51B7" fill-rule="evenodd" opacity=".5">
        <path d="M.003 21.616h6.593v-6.592H.003z"/>
        <path d="M15.87 1.555c5.37.094 8.572 3.672 9.042 10.219l1.744-.283L26.326 0H.33L0 11.49l1.743.284c.47-6.547 3.626-10.125 9.042-10.22v24.064c0 4.38-.754 5.088-5.463 5.133v1.837h16.011v-1.837c-4.709-.045-5.463-.752-5.463-5.133V1.555z"/>
        <path d="M20.006 21.616H26.6v-6.592h-6.593zM39.783 21.616h6.593v-6.592h-6.593zM59.558 21.616h6.593v-6.592h-6.593z"/>
    </g>
</svg>
